<svg xmlns="http://www.w3.org/2000/svg" width="640" height="640" fill="#0f1b27">
    <defs>
        <style type="text/css">
            svg .letter {
                fill-rule: evenodd;
            }
            svg .letter.main {
                fill: #fefdeb;
                stroke: #fefdeb;
            }
            svg .letter.lGray {
                fill: #c1c6c2;
                stroke: #c1c6c2;
            }
            svg .letter.gray {
                fill: #3f5165;
                stroke: #3f5165;
            }
            svg .letter.small {
                fill: #0f1b27;
                stroke: #0f1b27;
            }
            svg .dev {
                fill: rgba(255, 255, 0, 0.5);
                stroke: red;
            }
            svg .accents {
                fill: transparent;
                stroke: #eee;
                stroke-width: 2;
            }
        </style>
        <linearGradient id="bg" x1="0%" x2="0%" y1="0%" y2="100%">
            <stop offset="0%" stop-color="#e7ebda" />
            <stop offset="100%" stop-color="#b0b6b2" />
        </linearGradient>
    </defs>
    <path fill="url(#bg)" d="M 0 0 h 640 v 640 H 0 z" />


    <!-- not wrench but other thing | from https://github.com/developmentseed/collecticons-lib/blob/master/svg/wrench.svg -->
    <path transform="scale(-10,10) translate(-50, 15)"
        d="M 15.4 12.4 
        L 8.8 5.8 
        C 8.9 5.4 9 5 9 4.5 
        C 9 2 7 0 4.5 0 
        C 4 0 3.6 0.1 3.2 0.2 
        l 2.3 2.3 
        c 0.8 0.8 0.8 2.2 0 3 
        L 5.5 5.5 
        c -0.8 0.8 -2.2 0.8 -3 0 
        L 0.2 3.2 
        C 0.1 3.6 0 4 0 4.5 
        C 0 7 2 9 4.5 9 
        c 0.5 0 0.9 -0.1 1.3 -0.2 
        l 6.6 6.6 
        c 0.8 0.8 2.2 0.8 3 0 
        l 0 0 
        C 16.2 14.5 16.2 13.2 15.4 12.4 
        z 
        M 13.8 14.8
        c -0.6 0 -1 -0.4 -1 -1 
        s 0.4 -1 1 -1 
        s 1 0.4 1 1 
        S 14.3 14.8 13.8 14.8 
        z" 
    />
    <path transform="scale(-10,10) translate(-50, 15)"
        d="M 13.4 10.4
        l 7.4 7.4
        L 19.8 22.8
        l -7.4 -7.4
        "
    />
    <!-- the wrench -->
    <path transform="rotate(-45, 288, 307)"
        d="M 288 307
        h 84    q 1 0, 1 -1
        v -19   q 0 -1, -1 -1
        h -34   q -1 0, -1 -1
        v -60   q 0 -1, 1 -1
        h 51    q 1 0, 1 -1
        v -21   q 0 -1, -1 -1
        h -50   q -1 0, -1 -1
        v -22   q 0 -1, 1 -1
        h 51    q 1 0, 1 -1
        v -23   q 0 -1, -1 -1
        h -90.5 q -1 0, -1 1
        v 11    q 0 1, -1 1
        h -3.5  q -1 0, -1 1
        v 120.5 q 0 1, -1 1
        h -4    q -1 0, -1 1
        v 17.5  q 0 1, 1 1
    "/>
    <path class="accents" transform="rotate(-45, 288, 307)"
        d="
        M 293.5 285.5 h 43
        M 337.5 200.5 h -17.5 v 25 h 16.5
        M 337.5 178 h -40 v -12.5
    "/>

    <!-- cogwheel left -->
    <path d="M 195 306 h -22.5 q -3 0 -3 -3 v -3.5 q 0 -2 -3 -3 l -27.5 -9 q -3.5 0 -3.5 -3.5 l 4.5 -24.5 q 0 -1.5 1.5 -1.5 l 34 -5.5 q 3 0 3 -3 l 4.5 -13.5 l 21 20 q -7 20 -7 47 q 0 3 -3 3"/>
    <!-- cogwheel middle -->
    <path d="M 406 174 q -45 -25 -91 -16.5 l -22.5 -22.5 q 7.5 -3 19 -4 q 2 0 2 -2 l 5.5 -31 q 0 -4 4 -4 h 26.5 q 4 0 4 4 l 5 31 q 0 2 2 2 q 9 0 18 4.5 q 3 -0.5 4 -3 l 12.5 -17 q 2.5 -2.5 5 0 l 20 11 q 1 0 1 8 l -0.5 11 q -8 10 -14.5 29"/>
    <!-- cogwheel right -->
    <path transform="scale(-1,1)" d="M -481 305.5 h -22.5 q -3 0 -3 -3 v -3.5 q 0 -2 -3 -3 l -27.5 -9 q -3.5 0 -3.5 -3.5 l 4.5 -24.5 q 0 -1.5 1.5 -1.5 l 34 -5.5 q 3 0 3 -3 l 4.5 -13.5 l 22.5 9 q 3 1 3 3 q -12 25 -10.5 55 q 0 3 -3 3"/>

    <!-- NTM background -->
    <rect x="76.5" y="316.5" width="512.5" height="179" ry="47"/>
    <!-- NTM text -->
    <!-- N -->
    <path class="letter main" d="M 122 471 v -103 q 0 -5 10 -13 l 19 -19 a 1 1 0 0 1 1.7 0.5 l 55 61.5 a 1 1 0 0 0 1.5 -1 v -54 a 3 3 0 0 1 3 -3 h 33 a 3 3 0 0 1 3 3 v 95 l -34 29 l -50.9 -56.9 a 1 1 0 0 0 -1.5 1.3 v 26.5 L 123.8 471 a 0.1 0.1 0 0 1 -1.7 -1"/>
    <path class="letter lGray" d="M 161.8 470.4 v -31.2 l -18.5 16 l 17.5 16.2 a 1 1 0 0 0 1 -1"/>
    <path class="letter gray" d="M 124.5 471.5 l 35 -0.1 l -16.8 -15.6 Z"/>
    <path class="letter lGray" d="M 248.2 470.4 v -31.2 l -18.5 16 l 17.5 16.2 a 1 1 0 0 0 1 -1"/>
    <path class="letter gray" d="M 246 471.4 l -17 -15.6 l -14.2 11.9 l 4 4 a 1 1 0 0 0 1 0.5 Z"/>
    <!-- T -->
    <path class="letter main" d="M 312 471 a 3 3 0 0 1 -3 -3 v -87 a 3 3 0 0 0 -3 -3 h -31.5 a 3 3 0 0 1 -3 -3 v -32 a 3 3 0 0 1 3 -3 h 108.5 a 3 3 0 0 1 3 3 v 32 a 3 3 0 0 1 -3 3 h -31.5 a 3 3 0 0 0 -3 3 v 56 Z"/>
    <path class="letter lGray" d="M 348.5 469.9 v -31.8 l -18.5 16.6 l 17.5 16.2 a 1 1 0 0 0 1 -1"/>
    <path class="letter gray" d="M 313 471 l 33.1 -0.1 l -16.8 -15.6 Z"/>
    <!-- M -->
    <path class="letter main" d="M 410 471 a 3 3 0 0 1 -3 -3 v -125 a 3 3 0 0 1 3 -3 h 23 a 3 3 0 0 1 3 1 l 34 33 l 37 -38.8 a 1 1 0 0 1 1.7 0.5 l 29.5 30 a 3 3 0 0 1 1 3 v 70 l -38.5 33.5 a 3 3 0 0 1 -2 -3 v -57.5 a 1 1 0 0 0 -1.5 0 l -23 23 a 1 1 0 0 1 -1 0 l -24 -23.5 a 1 1 0 0 0 -1.5 0 v 26.5 Z"/>
    <path class="letter lGray" d="M 447.7 470.1 v -31.2 l -18.5 16 l 17.5 16.2 a 1 1 0 0 0 1 -1"/>
    <path class="letter gray" d="M 411.5 471.1 h 33.9 l -16.7 -15.7 Z"/>
    <path class="letter lGray" d="M 539.2 471.3 v -31.4 l -18.5 16.2 l 17.5 16.2 a 1 1 0 0 0 1 -1"/>
    <path class="letter gray" d="M 501.9 472.3 l 35 0 l -16.4 -16 Z"/>

    <!-- CREATE text -->
    <!-- C -->
    <path class="letter small" d="M 231.5 563.5 a 10 10 0 1 1 0 -45.5 h 5 q 6 0 10 5 a 1.5 1.5 0 0 1 -6 7 a 9 8 0 1 0 -11 23 q 9 1 10 -2 a 1.5 1.5 0 0 1 6 8.5 q -9 5 -15 3.9"/>
    <!-- R WHAT CAUSES THE DAMN LINE-->
    <path class="letter small" d="M 259 563.5 a 2 2 0 0 1 -2 -2 v -41 a 2 2 0 0 1 2 -2 h 20 a 15 15 0 0 1 8.5 26.5 a 1 1 0 0 0 -1 3 l 5.5 10 a 1 1.2 0 0 1 -3 5 m 1 0.5 h -6.5 a 1 1.5 0 0 1 -1 -1 l -9 -13.5 h -5.5 v 12.5 a 2 2 0 0 1 -2 2 h -7 m 10 -24 a 1 1 0 0 1 -1 -1 v -8.5 a 1 1 0 0 1 1 -1 h 8 a 4 4 0 0 1 0 10.5 h -8"/>
    <!-- E -->
    <path class="letter small" d="M 303.5 563.5 a 2 2 0 0 1 -2 -2 v -41 a 2 2 0 0 1 2 -2 h 26 a 2 2 0 0 1 2 2 v 6 a 2 2 0 0 1 -2 2 h -15.5 a 2 2 0 0 0 -2 2 v 4 a 2 2 0 0 0 2 2 h 14 a 2 2 0 0 1 2 2 v 5 a 2 2 0 0 1 -2 2 h -14 a 2 2 0 0 0 -2 2 v 4 a 2 2 0 0 0 2 2 h 15.5 a 2 2 0 0 1 2 2 v 6 a 2 2 0 0 1 -2 2 h -26"/>
    <!-- A -->
    <path class="letter small" d="M 340 563.5 a 2 2 0 0 1 -2 -2 l 16 -42 a 2 2 0 0 1 2 -1 h 7 a 2 2 0 0 1 2 1 l 16 42 a 2 2 0 0 1 -2 2 h -5 a 2 2 0 0 1 -2 -2 l -5 -8 h -15 l -5 8 a 2 2 0 0 1 -2 2 h -5 m 16 -20 l 3.5 -10 l 3.5 10 Z"/>
    <!-- T -->
    <path class="letter small" d="M 399 563.5 a 2 2 0 0 1 -2 -2 v -31 a 2 2 0 0 0 -2 -2 h -8 a 2 2 0 0 1 -2 -2 v -6 a 2 2 0 0 1 2 -2 h 30 a 2 2 0 0 1 2 2 v 6 a 2 2 0 0 1 -2 2 h -8 a 2 2 0 0 0 -2 2 v 31 a 2 2 0 0 1 -2 2 h -6"/>
    <!-- E -->
    <path class="letter small" d="M 430 563.5 a 2 2 0 0 1 -2 -2 v -41 a 2 2 0 0 1 2 -2 h 26 a 2 2 0 0 1 2 2 v 6 a 2 2 0 0 1 -2 2 h -15.5 a 2 2 0 0 0 -2 2 v 4 a 2 2 0 0 0 2 2 h 14 a 2 2 0 0 1 2 2 v 5 a 2 2 0 0 1 -2 2 h -14 a 2 2 0 0 0 -2 2 v 4 a 2 2 0 0 0 2 2 h 15.5 a 2 2 0 0 1 2 2 v 6 a 2 2 0 0 1 -2 2 h -26"/>

</svg>